<?xml version="1.0" encoding="utf-8"?>
<svg viewBox="0 0 369.8947 78.2845" width="369.895" height="78.285" xmlns="http://www.w3.org/2000/svg">
  <g id="SvgjsG1007" featurekey="odWo6G-0" transform="matrix(1.263135313987732, 0, 0, 1.263135313987732, -17.104135513305664, -24.03997039794922)" fill="#234286">
    <path xmlns="http://www.w3.org/2000/svg" d="M51,51.633728c-0.3215332-0.0835571-0.65271-0.1420288-1-0.1420288s-0.6784668,0.0584717-1,0.1420288  c-1.7202759,0.4472656-3,1.9996948-3,3.8579712s1.2797241,3.4107056,3,3.8579712c0.3215332,0.0835571,0.65271,0.1420288,1,0.1420288  s0.6784668-0.0584717,1-0.1420288c1.7202759-0.4472656,3-1.9996948,3-3.8579712S52.7202759,52.0809937,51,51.633728z"/>
    <path xmlns="http://www.w3.org/2000/svg" d="M82.5,54.4916992h3.9589844c-0.1000366-3.6800537-0.7462158-7.3467407-1.9498901-10.8658447  c-0.0358276-0.1040649-0.0692749-0.2091675-0.1060791-0.3128052c-0.1288452-0.3656616-0.2697754-0.7278442-0.4105225-1.0900879  c-0.0911865-0.2327271-0.1795654-0.4668579-0.2753906-0.6972046c-0.0953979-0.2311401-0.1986084-0.4596558-0.2988892-0.6891479  c-0.1561279-0.3546753-0.3120728-0.7094116-0.479126-1.0581055c-0.0481567-0.1011353-0.0997925-0.2008667-0.1488647-0.3016357  c-1.6369629-3.3380737-3.7722168-6.3865967-6.3027954-9.0585327l-2.7994385,2.7994385  c-0.1953125,0.1953125-0.4511719,0.2929688-0.7070313,0.2929688s-0.5117188-0.0976563-0.7070313-0.2929688  c-0.390625-0.390625-0.390625-1.0234375,0-1.4140625l2.7994385-2.7994385  c-2.6782837-2.5366821-5.7348633-4.6764526-9.0822754-6.3149414c-0.0891113-0.043335-0.1773071-0.0891113-0.2666626-0.1316528  c-0.3607788-0.1729736-0.7277832-0.3344727-1.0949707-0.4957886c-0.2165527-0.0944824-0.4321899-0.1919556-0.6502075-0.2820435  c-0.2440186-0.1015625-0.4920654-0.1954346-0.7387695-0.2918091c-0.3484497-0.1351318-0.6967773-0.270813-1.0484009-0.3948364  c-0.1181641-0.0419922-0.2380981-0.0800781-0.3567505-0.1209106C58.3255005,19.7751465,54.6694946,19.1317749,51,19.0319824  v3.9597168c0,0.5522461-0.4477539,1-1,1s-1-0.4477539-1-1v-3.9597168  c-3.6655273,0.0995483-7.3175049,0.7418213-10.8237915,1.9364014c-0.1245728,0.0427856-0.2504272,0.0827637-0.3743896,0.1268921  c-0.3457031,0.1219482-0.6881104,0.2554321-1.0307007,0.3881836c-0.2526855,0.0986328-0.5065918,0.1947632-0.7564697,0.2988281  c-0.211731,0.0875244-0.4212646,0.182251-0.6316528,0.2739868c-0.3735352,0.1639404-0.7468872,0.3283081-1.1137695,0.5042725  c-0.0829468,0.0394897-0.1647339,0.0820313-0.2474365,0.1221924c-3.352478,1.6393433-6.4133911,3.7815552-9.0951538,6.3215332  l2.7994385,2.7994385c0.390625,0.390625,0.390625,1.0234375,0,1.4140625  c-0.1953125,0.1953125-0.4511719,0.2929688-0.7070313,0.2929688s-0.5117188-0.0976563-0.7070313-0.2929688l-2.7994385-2.7994385  c-2.5305786,2.671936-4.6658325,5.720459-6.3027954,9.0585327c-0.0490723,0.100769-0.100708,0.2005005-0.1488647,0.3016357  c-0.1668091,0.3482056-0.3224487,0.7025146-0.4784546,1.0567017c-0.100708,0.2304688-0.2043457,0.4598389-0.3000488,0.6918945  c-0.0952759,0.229126-0.1832275,0.4620361-0.2739258,0.6934814c-0.1411133,0.3630371-0.2824097,0.7260742-0.4115601,1.0925903  c-0.0368042,0.1035767-0.0701904,0.2086792-0.1060181,0.3126831c-1.2036743,3.519104-1.8498535,7.185791-1.9498901,10.8658447H17.5  c0.5522461,0,1,0.4477539,1,1s-0.4477539,1-1,1h-3.9589844c0.2362671,8.6994019,3.5564575,17.3236694,9.9603271,24.0845947  l2.8106689-2.8106689c0.390625-0.390625,1.0234375-0.390625,1.4140625,0s0.390625,1.0234375,0,1.4140625l-1.8286133,1.8286133  h48.2050781l-1.8286133-1.8286133c-0.390625-0.390625-0.390625-1.0234375,0-1.4140625s1.0234375-0.390625,1.4140625,0  l2.8106689,2.8106689c6.4038696-6.7609253,9.7240601-15.3851929,9.9603271-24.0845947H82.5c-0.5522461,0-1-0.4477539-1-1  S81.9477539,54.4916992,82.5,54.4916992z M51,61.4013672v1.590332c0,0.5522461-0.4477539,1-1,1s-1-0.4477539-1-1v-1.590332  c-2.8331299-0.4783325-5-2.9424438-5-5.909668s2.1668701-5.4313354,5-5.909668v-21.590332c0-0.5522461,0.4477539-1,1-1  s1,0.4477539,1,1v21.590332c2.8331299,0.4783325,5,2.9424438,5,5.909668S53.8331299,60.9230347,51,61.4013672z"/>
  </g>
  <g id="SvgjsG1008" featurekey="VGK2BT-0" transform="matrix(3.3676512241363525, 0, 0, 3.3676512241363525, 110.58558654785156, -5.205907344818115)" fill="#264e86">
    <path d="M0.42 7.76 l10.2 0 l0 2.78 l-3.6 0 l0 9.46 l-3 0 l0 -9.46 l-3.6 0 l0 -2.78 z M14.940000000000001 15 l0 5 l-3 0 l0 -14 l3 0 l0 4.92 c0.7 -0.74 1.58 -1.02 2.58 -1.02 c2.84 0 4.62 2.44 4.62 5.1 l0 5 l-3 0 l0 -5 c0 -1.36 -0.54 -2.32 -2 -2.32 c-1.44 0 -2.2 0.92 -2.2 2.32 z M26.680000000000003 13.8 c0.3 0.1 0.64 0.18 1 0.22 c0.36 0.06 0.7 0.08 1.02 0.08 c0.4 0 1.42 -0.08 1.42 -0.66 c0 -0.62 -0.88 -0.64 -1.32 -0.64 c-0.88 0 -1.64 0.2 -2.12 1 z M32.34 16.88 l0 2.8 c-1.12 0.26 -2.24 0.44 -3.4 0.44 c-3.18 0 -5.54 -1.86 -5.54 -5.08 c0 -3.18 2.28 -5.14 5.3 -5.14 c2.06 0 4.44 0.98 4.44 3.32 c0 2.32 -2.52 3.18 -4.46 3.18 c-0.74 0 -1.48 -0.2 -2.16 -0.48 c0.4 1.12 1.6 1.3 2.64 1.3 c0.54 0 1.08 -0.02 1.62 -0.1 c0.5 -0.04 1.08 -0.1 1.56 -0.24 z M42.34 17.52 l-4.5 0 l-0.88 2.48 l-3.26 0 l4.9 -12.24 l3 0 l4.9 12.24 l-3.28 0 z M38.82000000000001 14.74 l2.54 0 l-1.26 -3.56 z M54.620000000000005 10 l3 0 l0 5 c0 3.06 -2.12 5.1 -5.1 5.1 c-3.06 0 -5.1 -2.14 -5.1 -5.1 l0 -5 l3 0 l0 5 c0 1.34 0.68 2.32 2.1 2.32 c1.46 0 2.1 -0.96 2.1 -2.32 l0 -5 z M65.26 10.34 l0 2.78 l-2.8 0 l0 1.88 c0 1.54 1.02 2.32 2.5 2.32 c0.18 0 0.34 -0.02 0.48 -0.04 s0.26 -0.04 0.4 -0.06 l0 2.78 c-0.18 0.02 -0.32 0.06 -0.42 0.08 c-0.12 0.02 -0.32 0.02 -0.58 0.02 c-3.02 0 -5.38 -2.06 -5.38 -5.1 l0 -7.4 l3 0 l0 2.74 l2.8 0 z M71.7 17.32 c1.46 0 2.3 -0.86 2.3 -2.32 s-0.84 -2.32 -2.3 -2.32 s-2.3 0.86 -2.3 2.32 s0.84 2.32 2.3 2.32 z M71.7 20.1 c-3.08 0 -5.3 -2.04 -5.3 -5.1 c0 -3.16 2.3 -5.1 5.3 -5.1 c3.1 0 5.3 2.04 5.3 5.1 c0 3.14 -2.32 5.1 -5.3 5.1 z"/>
  </g>
</svg>